<svg width="50" height="50" viewBox="0 0 50 50" fill="none" xmlns="http://www.w3.org/2000/svg">
<g filter="url(#filter0_d_1_308)">
<circle cx="25" cy="25" r="15" fill="url(#paint0_linear_1_308)"/>
</g>
<g clip-path="url(#clip0_1_308)">
<path fill-rule="evenodd" clip-rule="evenodd" d="M19.4752 26.0864C19.4409 26.0541 19.407 26.0212 19.3734 25.9876C17.6022 24.2165 17.6022 21.3448 19.3734 19.5736C21.1446 17.8025 26.7882 17.684 26.7882 17.684C26.7882 17.684 27.5586 24.2165 25.7874 25.9876C24.2144 27.5607 21.7733 27.7367 20.0061 26.5156L21.4301 24.7681L23.7064 24.2766L21.8482 24.0909L23.0291 22.8885L24.3734 22.594L23.3104 22.2792L24.3734 20.3617L22.8614 22.0576L22.2776 21.2337L22.4831 22.594L21.4301 23.7812L20.9419 22.2792V24.2766L19.4752 26.0864Z" fill="white"/>
</g>
<defs>
<filter id="filter0_d_1_308" x="0" y="0" width="50" height="50" filterUnits="userSpaceOnUse" color-interpolation-filters="sRGB">
<feFlood flood-opacity="0" result="BackgroundImageFix"/>
<feColorMatrix in="SourceAlpha" type="matrix" values="0 0 0 0 0 0 0 0 0 0 0 0 0 0 0 0 0 0 127 0" result="hardAlpha"/>
<feOffset/>
<feGaussianBlur stdDeviation="5"/>
<feColorMatrix type="matrix" values="0 0 0 0 0.392157 0 0 0 0 0.72549 0 0 0 0 0.329412 0 0 0 0.7 0"/>
<feBlend mode="normal" in2="BackgroundImageFix" result="effect1_dropShadow_1_308"/>
<feBlend mode="normal" in="SourceGraphic" in2="effect1_dropShadow_1_308" result="shape"/>
</filter>
<linearGradient id="paint0_linear_1_308" x1="10" y1="10" x2="10" y2="40" gradientUnits="userSpaceOnUse">
<stop stop-color="#5AC178"/>
<stop offset="1" stop-color="#5FBC51"/>
</linearGradient>
<clipPath id="clip0_1_308">
<rect width="10" height="10" fill="white" transform="translate(17.5 17.5)"/>
</clipPath>
</defs>
</svg>
