<svg width="10" height="10" viewBox="0 0 10 10" fill="none" xmlns="http://www.w3.org/2000/svg">
<g clip-path="url(#clip0_1_173)">
<path fill-rule="evenodd" clip-rule="evenodd" d="M1.97522 8.58639C1.9409 8.55411 1.90695 8.5212 1.8734 8.48764C0.102218 6.71647 0.102218 3.84481 1.8734 2.07364C3.64457 0.302451 9.28825 0.183961 9.28825 0.183961C9.28825 0.183961 10.0586 6.71647 8.28743 8.48764C6.71438 10.0607 4.27332 10.2367 2.50608 9.01559L3.93006 7.26811L6.20643 6.77665L4.34825 6.59089L5.52914 5.3885L6.87336 5.09403L5.81043 4.77925L6.87336 2.86175L5.36145 4.55761L4.7776 3.73372L4.98313 5.09403L3.93006 6.28118L3.44192 4.77923V6.77665L1.97522 8.58639Z" fill="#455160"/>
</g>
<defs>
<clipPath id="clip0_1_173">
<rect width="10" height="10" fill="white"/>
</clipPath>
</defs>
</svg>
